HIERARCHY
ROOT Hip
{
	OFFSET	0.0000	0.0000	0.0000
	CHANNELS 6 Xposition Yposition Zposition Xrotation Yrotation Zrotation
	JOINT LowerSpine
	{
		OFFSET	0.0000	9.3748	-5.0731
		CHANNELS 3 Xrotation Yrotation Zrotation
		JOINT MiddleSpine
		{
			OFFSET	0.0000	8.5552	0.4469
			CHANNELS 3 Xrotation Yrotation Zrotation
			JOINT Chest
			{
				OFFSET	0.0000	10.5861	-2.3564
				CHANNELS 3 Xrotation Yrotation Zrotation
				JOINT Neck
				{
					OFFSET	0.0000	23.8554	-0.4961
					CHANNELS 3 Xrotation Yrotation Zrotation
					JOINT Head
					{
						OFFSET	0.0000	13.4714	3.6642
						CHANNELS 3 Xrotation Yrotation Zrotation
						End Site
						{
							OFFSET	0.0001	18.8231	0.5619
						}
					}
				}
				JOINT LClavicle
				{
					OFFSET	2.4084	23.0216	7.8873
					CHANNELS 3 Xrotation Yrotation Zrotation
					JOINT LShoulder
					{
						OFFSET	14.0702	3.3022	-5.3431
						CHANNELS 3 Xrotation Yrotation Zrotation
						JOINT LForearm
						{
							OFFSET	29.8880	-0.1061	-0.2590
							CHANNELS 3 Xrotation Yrotation Zrotation
							JOINT LHand
							{
								OFFSET	24.9328	0.0723	-0.1493
								CHANNELS 3 Xrotation Yrotation Zrotation
								JOINT LFinger1
								{
									OFFSET	9.6632	0.8451	2.6839
									CHANNELS 3 Xrotation Yrotation Zrotation
									JOINT LFinger11
									{
										OFFSET	3.6146	-0.8814	0.6369
										CHANNELS 3 Xrotation Yrotation Zrotation
										JOINT LFinger12
										{
											OFFSET	2.4676	-0.6020	0.4350
											CHANNELS 3 Xrotation Yrotation Zrotation
											End Site
											{
												OFFSET	1.7559	-0.5242	0.2848
											}
										}
									}
								}
								JOINT LFinger2
								{
									OFFSET	9.8075	0.9759	0.2337
									CHANNELS 3 Xrotation Yrotation Zrotation
									JOINT LFinger21
									{
										OFFSET	4.4692	0.0125	-0.0264
										CHANNELS 3 Xrotation Yrotation Zrotation
										JOINT LFinger22
										{
											OFFSET	2.4771	0.0075	-0.0151
											CHANNELS 3 Xrotation Yrotation Zrotation
											End Site
											{
												OFFSET	2.2250	-0.1571	0.0030
											}
										}
									}
								}
								JOINT LFinger3
								{
									OFFSET	9.2946	0.6512	-2.1989
									CHANNELS 3 Xrotation Yrotation Zrotation
									JOINT LFinger31
									{
										OFFSET	4.0553	-0.2053	-0.2539
										CHANNELS 3 Xrotation Yrotation Zrotation
										JOINT LFinger32
										{
											OFFSET	2.3109	-0.1162	-0.1452
											CHANNELS 3 Xrotation Yrotation Zrotation
											End Site
											{
												OFFSET	2.0433	-0.2512	-0.0966
											}
										}
									}
								}
								JOINT LFinger4
								{
									OFFSET	8.6250	-0.6555	-3.7976
									CHANNELS 3 Xrotation Yrotation Zrotation
									JOINT LFinger41
									{
										OFFSET	2.4944	-0.5202	-0.6886
										CHANNELS 3 Xrotation Yrotation Zrotation
										JOINT LFinger42
										{
											OFFSET	1.8291	-0.3810	-0.5052
											CHANNELS 3 Xrotation Yrotation Zrotation
											End Site
											{
												OFFSET	1.6235	-0.4461	-0.3725
											}
										}
									}
								}
								JOINT LFinger0
								{
									OFFSET	1.9989	-1.5130	1.5154
									CHANNELS 3 Xrotation Yrotation Zrotation
									JOINT LFinger01
									{
										OFFSET	3.7217	-1.2224	2.8061
										CHANNELS 3 Xrotation Yrotation Zrotation
										JOINT LFinger02
										{
											OFFSET	2.4508	-0.8769	1.7657
											CHANNELS 3 Xrotation Yrotation Zrotation
											End Site
											{
												OFFSET	1.8022	-0.6204	1.2341
											}
										}
									}
								}
							}
						}
					}
				}
				JOINT RClavicle
				{
					OFFSET	-2.4084	23.0216	7.8873
					CHANNELS 3 Xrotation Yrotation Zrotation
					JOINT RShoulder
					{
						OFFSET	-14.0727	3.3027	-5.3441
						CHANNELS 3 Xrotation Yrotation Zrotation
						JOINT RForearm
						{
							OFFSET	-29.8880	-0.1061	-0.2590
							CHANNELS 3 Xrotation Yrotation Zrotation
							JOINT RHand
							{
								OFFSET	-24.9328	0.0724	-0.1493
								CHANNELS 3 Xrotation Yrotation Zrotation
								JOINT RFinger1
								{
									OFFSET	-9.6632	0.8451	2.6839
									CHANNELS 3 Xrotation Yrotation Zrotation
									JOINT RFinger11
									{
										OFFSET	-3.6146	-0.8814	0.6369
										CHANNELS 3 Xrotation Yrotation Zrotation
										JOINT RFinger12
										{
											OFFSET	-2.4676	-0.6020	0.4350
											CHANNELS 3 Xrotation Yrotation Zrotation
											End Site
											{
												OFFSET	-1.7559	-0.5242	0.2848
											}
										}
									}
								}
								JOINT RFinger2
								{
									OFFSET	-9.8075	0.9760	0.2337
									CHANNELS 3 Xrotation Yrotation Zrotation
									JOINT RFinger21
									{
										OFFSET	-4.4692	0.0125	-0.0264
										CHANNELS 3 Xrotation Yrotation Zrotation
										JOINT RFinger22
										{
											OFFSET	-2.4771	0.0075	-0.0151
											CHANNELS 3 Xrotation Yrotation Zrotation
											End Site
											{
												OFFSET	-2.2250	-0.1571	0.0030
											}
										}
									}
								}
								JOINT RFinger3
								{
									OFFSET	-9.2946	0.6512	-2.1989
									CHANNELS 3 Xrotation Yrotation Zrotation
									JOINT RFinger31
									{
										OFFSET	-4.0553	-0.2053	-0.2539
										CHANNELS 3 Xrotation Yrotation Zrotation
										JOINT RFinger32
										{
											OFFSET	-2.3109	-0.1162	-0.1452
											CHANNELS 3 Xrotation Yrotation Zrotation
											End Site
											{
												OFFSET	-2.0433	-0.2512	-0.0966
											}
										}
									}
								}
								JOINT RFinger4
								{
									OFFSET	-8.6250	-0.6555	-3.7976
									CHANNELS 3 Xrotation Yrotation Zrotation
									JOINT RFinger41
									{
										OFFSET	-2.4944	-0.5202	-0.6886
										CHANNELS 3 Xrotation Yrotation Zrotation
										JOINT RFinger42
										{
											OFFSET	-1.8291	-0.3810	-0.5052
											CHANNELS 3 Xrotation Yrotation Zrotation
											End Site
											{
												OFFSET	-1.6235	-0.4461	-0.3725
											}
										}
									}
								}
								JOINT RFinger0
								{
									OFFSET	-1.9989	-1.5130	1.5154
									CHANNELS 3 Xrotation Yrotation Zrotation
									JOINT RFinger01
									{
										OFFSET	-3.7218	-1.2224	2.8061
										CHANNELS 3 Xrotation Yrotation Zrotation
										JOINT RFinger02
										{
											OFFSET	-2.4508	-0.8769	1.7657
											CHANNELS 3 Xrotation Yrotation Zrotation
											End Site
											{
												OFFSET	-1.8022	-0.6204	1.2341
											}
										}
									}
								}
							}
						}
					}
				}
			}
		}
	}
	JOINT RThigh
	{
		OFFSET	-10.0287	4.2377	-0.8267
		CHANNELS 3 Xrotation Yrotation Zrotation
		JOINT RShin
		{
			OFFSET	-0.8025	-43.6204	0.0000
			CHANNELS 3 Xrotation Yrotation Zrotation
			JOINT RFoot
			{
				OFFSET	0.0000	-42.8326	0.0000
				CHANNELS 3 Xrotation Yrotation Zrotation
				JOINT RToe
				{
					OFFSET	0.0000	-4.8750	10.1942
					CHANNELS 3 Xrotation Yrotation Zrotation
					End Site
					{
						OFFSET	0.0000	0.0000	6.8389
					}
				}
			}
		}
	}
	JOINT LThigh
	{
		OFFSET	10.0286	4.2380	-0.8267
		CHANNELS 3 Xrotation Yrotation Zrotation
		JOINT LShin
		{
			OFFSET	0.8025	-43.6207	0.0000
			CHANNELS 3 Xrotation Yrotation Zrotation
			JOINT LFoot
			{
				OFFSET	0.0000	-42.8326	0.0000
				CHANNELS 3 Xrotation Yrotation Zrotation
				JOINT LToe
				{
					OFFSET	0.0000	-4.8750	10.1943
					CHANNELS 3 Xrotation Yrotation Zrotation
					End Site
					{
						OFFSET	0.0000	0.0000	6.8389
					}
				}
			}
		}
	}
}
MOTION
Frames:	5
Frame Time: 0.0333333000
	121.6145	85.5859	-84.1868	-2.069288	12.997720	3.055281	0.000000	0.000000	0.000000	3.321826	-1.197254	0.436446	11.121010	-3.875369	1.720852	0.000000	0.000000	0.000000	0.000000	0.000000	0.000000	0.000000	0.000000	-10.310240	31.754870	-15.209700	-46.192010	21.795010	-94.144290	4.525833	0.000000	0.000000	0.000000	11.189150	4.279566	-53.992030	17.941140	-8.680662	-74.089230	-1.275349	2.428456	-50.054970	0.000000	0.000000	-64.702610	0.000000	0.000000	-91.400230	0.000000	0.000000	-50.497570	-8.022415	-5.038014	-58.526750	-6.567580	2.596826	-84.828320	-7.925027	4.684901	-56.421330	-15.504120	-6.145475	-37.556840	-13.715990	17.325710	-96.379110	-21.045940	18.154710	-46.762500	8.461460	3.237651	-2.640284	12.010600	27.657360	-14.063410	10.510650	57.528090	-0.530098	0.000000	0.000000	9.480021	32.839810	14.430790	38.928100	26.174790	89.544450	-5.843137	0.000000	0.000000	0.000000	11.189150	-4.279566	53.992030	17.941140	8.680662	74.089230	-1.275349	-2.428456	50.054970	0.000000	0.000000	64.702610	0.000000	0.000000	91.400230	0.000000	0.000000	50.497570	-8.022415	5.038014	58.526750	-6.567580	-2.596826	84.828320	-7.925027	-4.684901	56.421330	-15.504120	6.145475	37.556840	-13.715990	-17.325710	96.379110	-21.045940	-18.154710	46.762500	8.461460	-3.237651	2.640284	12.010600	-27.657360	14.063410	10.510650	-57.528090	0.530098	-9.731232	7.654326	3.181021	35.158060	5.730189	-4.273967	-23.930170	-7.848166	-6.028630	-0.000005	0.000000	0.000000	-14.138500	-2.951358	20.719400	14.295790	0.378669	0.037234	13.968540	-4.926003	-1.658688	-0.000001	0.000000	0.000000
	125.6351	85.6634	-83.8540	-2.151332	11.818160	3.216540	0.000000	0.000000	0.000000	3.349151	-1.201479	0.470907	11.192150	-3.880249	1.810458	0.000000	0.000000	0.000000	0.000000	0.000000	0.000000	0.000000	0.000000	-10.395460	31.805990	-14.691400	-45.764350	21.140910	-94.983090	3.831818	0.000000	0.000000	0.000000	11.189150	4.279566	-53.992030	17.941140	-8.680662	-74.089230	-1.275349	2.428456	-50.054970	0.000000	0.000000	-64.702610	0.000000	0.000000	-91.400230	0.000000	0.000000	-50.497570	-8.022415	-5.038014	-58.526750	-6.567580	2.596826	-84.828320	-7.925027	4.684901	-56.421330	-15.504120	-6.145475	-37.556840	-13.715990	17.325710	-96.379110	-21.045940	18.154710	-46.762500	8.461460	3.237651	-2.640284	12.010600	27.657360	-14.063410	10.510650	57.528090	-0.530098	0.000000	0.000000	9.511028	32.888780	13.329980	38.483570	27.866190	92.622780	-7.555964	0.000000	0.000000	0.000000	11.189150	-4.279566	53.992030	17.941140	8.680662	74.089230	-1.275349	-2.428456	50.054970	0.000000	0.000000	64.702610	0.000000	0.000000	91.400230	0.000000	0.000000	50.497570	-8.022415	5.038014	58.526750	-6.567580	-2.596826	84.828320	-7.925027	-4.684901	56.421330	-15.504120	6.145475	37.556840	-13.715990	-17.325710	96.379110	-21.045940	-18.154710	46.762500	8.461460	-3.237651	2.640284	12.010600	-27.657360	14.063410	10.510650	-57.528090	0.530098	-8.213357	9.044918	0.941362	34.430580	6.812219	-4.878662	-24.290800	-8.620898	-6.668487	-0.000005	0.000000	0.000000	-12.335040	-2.421245	20.329880	11.458810	0.547270	0.009938	14.838850	-6.302248	-2.065135	0.000018	0.000000	0.000000
	129.8478	86.0400	-83.6103	-2.100009	10.526470	3.439352	0.000000	0.000000	0.000000	3.357220	-1.202067	0.480586	11.263780	-3.879807	1.898678	0.000000	0.000000	0.000000	0.000000	0.000000	0.000000	0.000000	0.000000	-10.439920	31.907180	-14.627070	-44.687810	21.271130	-95.453720	3.551917	0.000000	0.000000	0.000000	11.189150	4.279566	-53.992030	17.941140	-8.680662	-74.089230	-1.275349	2.428456	-50.054970	0.000000	0.000000	-64.702610	0.000000	0.000000	-91.400230	0.000000	0.000000	-50.497570	-8.022415	-5.038014	-58.526750	-6.567580	2.596826	-84.828320	-7.925027	4.684901	-56.421330	-15.504120	-6.145475	-37.556840	-13.715990	17.325710	-96.379110	-21.045940	18.154710	-46.762500	8.461460	3.237651	-2.640284	12.010600	27.657360	-14.063410	10.510650	57.528090	-0.530098	0.000000	0.000000	9.558517	32.991410	12.400130	38.031730	24.539980	94.899930	-4.155296	0.000000	0.000000	0.000000	11.189150	-4.279566	53.992030	17.941140	8.680662	74.089230	-1.275349	-2.428456	50.054970	0.000000	0.000000	64.702610	0.000000	0.000000	91.400230	0.000000	0.000000	50.497570	-8.022415	5.038014	58.526750	-6.567580	-2.596826	84.828320	-7.925027	-4.684901	56.421330	-15.504120	6.145475	37.556840	-13.715990	-17.325710	96.379110	-21.045940	-18.154710	46.762500	8.461460	-3.237651	2.640284	12.010600	-27.657360	14.063410	10.510650	-57.528090	0.530098	-6.391990	8.461226	-2.585395	32.037120	6.379496	-4.217214	-22.932640	-8.118977	-6.126893	-0.000005	0.000000	0.000000	-10.696820	-1.944268	19.073240	9.295415	0.612137	-0.034395	16.001800	-6.435030	-2.036598	0.000018	0.000000	0.000000
	134.2254	86.4755	-83.4379	-1.938891	8.981402	3.569187	0.000000	0.000000	0.000000	3.385246	-1.202095	0.511882	11.335520	-3.874552	1.984791	0.000000	0.000000	0.000000	0.000000	0.000000	0.000000	0.000000	0.000000	-10.498550	32.063680	-14.890650	-43.552070	21.833160	-95.488960	3.552736	0.000000	0.000000	0.000000	11.189150	4.279566	-53.992030	17.941140	-8.680662	-74.089230	-1.275349	2.428456	-50.054970	0.000000	0.000000	-64.702610	0.000000	0.000000	-91.400230	0.000000	0.000000	-50.497570	-8.022415	-5.038014	-58.526750	-6.567580	2.596826	-84.828320	-7.925027	4.684901	-56.421330	-15.504120	-6.145475	-37.556840	-13.715990	17.325710	-96.379110	-21.045940	18.154710	-46.762500	8.461460	3.237651	-2.640284	12.010600	27.657360	-14.063410	10.510650	57.528090	-0.530098	0.000000	0.000000	9.589392	33.124750	12.203590	37.303150	23.838400	96.711880	-3.135139	0.000000	0.000000	0.000000	11.189150	-4.279566	53.992030	17.941140	8.680662	74.089230	-1.275349	-2.428456	50.054970	0.000000	0.000000	64.702610	0.000000	0.000000	91.400230	0.000000	0.000000	50.497570	-8.022415	5.038014	58.526750	-6.567580	-2.596826	84.828320	-7.925027	-4.684901	56.421330	-15.504120	6.145475	37.556840	-13.715990	-17.325710	96.379110	-21.045940	-18.154710	46.762500	8.461460	-3.237651	2.640284	12.010600	-27.657360	14.063410	10.510650	-57.528090	0.530098	-5.012251	6.457620	-6.531835	29.059780	4.771576	-2.868485	-20.136360	-7.306612	-5.241111	-0.000005	0.000000	0.000000	-9.079943	-1.514783	17.461460	7.376047	0.645099	-0.048703	17.173840	-5.251910	-1.609329	0.000034	0.000000	0.000000
	138.5180	86.6429	-83.3008	-1.679345	7.197689	3.499407	0.000000	0.000000	0.000000	3.412379	-1.199322	0.538216	11.408660	-3.864304	2.067458	0.000000	0.000000	0.000000	0.000000	0.000000	0.000000	0.000000	0.000000	-10.564980	32.261590	-15.249250	-42.575450	22.660180	-95.140570	3.809224	0.000000	0.000000	0.000000	11.189150	4.279566	-53.992030	17.941140	-8.680662	-74.089230	-1.275349	2.428456	-50.054970	0.000000	0.000000	-64.702610	0.000000	0.000000	-91.400230	0.000000	0.000000	-50.497570	-8.022415	-5.038014	-58.526750	-6.567580	2.596826	-84.828320	-7.925027	4.684901	-56.421330	-15.504120	-6.145475	-37.556840	-13.715990	17.325710	-96.379110	-21.045940	18.154710	-46.762500	8.461460	3.237651	-2.640284	12.010600	27.657360	-14.063410	10.510650	57.528090	-0.530098	0.000000	0.000000	9.635800	33.206870	12.872610	36.357830	23.945860	97.631580	-2.779586	0.000000	0.000000	0.000000	11.189150	-4.279566	53.992030	17.941140	8.680662	74.089230	-1.275349	-2.428456	50.054970	0.000000	0.000000	64.702610	0.000000	0.000000	91.400230	0.000000	0.000000	50.497570	-8.022415	5.038014	58.526750	-6.567580	-2.596826	84.828320	-7.925027	-4.684901	56.421330	-15.504120	6.145475	37.556840	-13.715990	-17.325710	96.379110	-21.045940	-18.154710	46.762500	8.461460	-3.237651	2.640284	12.010600	-27.657360	14.063410	10.510650	-57.528090	0.530098	-4.791395	4.646970	-9.784250	27.151620	3.190392	-1.800451	-17.007090	-6.839538	-4.628942	-0.000003	0.000000	0.000000	-7.659120	-1.170449	15.973640	5.855243	0.684240	0.002003	17.515390	-2.760273	-0.842544	-0.000408	0.000000	0.000000
